<?xml version="1.0" encoding="utf-8"?>
<svg viewBox="0 0 1280 252" xmlns="http://www.w3.org/2000/svg">
  <path d="M0 0 C4.54 -0.02 9.08 -0.04 13.62 -0.05 C15.16 -0.06 16.71 -0.07 18.25 -0.08 C20.47 -0.09 22.69 -0.09 24.9 -0.1 C25.6 -0.1 26.29 -0.11 27.01 -0.11 C28.67 -0.11 30.34 -0.06 32 0 C33 1 33 1 33.12 3.18 C33.12 4.16 33.12 5.13 33.12 6.13 C33.12 7.8 33.12 7.8 33.12 9.5 C33.12 10.73 33.12 11.96 33.11 13.23 C33.11 14.52 33.11 15.81 33.11 17.13 C33.11 20.67 33.11 24.21 33.1 27.76 C33.1 31.45 33.09 35.15 33.09 38.85 C33.09 45.85 33.08 52.86 33.07 59.86 C33.06 67.84 33.06 75.81 33.05 83.78 C33.04 100.19 33.02 116.59 33 133 C22.77 133 12.54 133 2 133 C1.34 130.69 0.68 128.38 0 126 C-0.51 126.4 -1.02 126.8 -1.55 127.21 C-11.5 134.46 -22.26 136.16 -34.28 134.57 C-47.95 132.13 -59.36 126.03 -68 115 C-72.22 107.98 -73.82 101 -76 93 C-97.45 93.33 -118.9 93.66 -141 94 C-140.03 99.29 -140.03 99.29 -136.25 102.19 C-135.24 102.92 -135.24 102.92 -134.2 103.67 C-128.89 106.88 -124.4 107.42 -118.31 107.44 C-117.11 107.44 -117.11 107.44 -115.89 107.45 C-110.13 107.33 -105.89 106.3 -100.95 103.19 C-98.94 101.96 -97.27 101.52 -95 101 C-92.7 103.41 -90.41 105.83 -88.12 108.25 C-87.47 108.93 -86.82 109.61 -86.15 110.32 C-85.53 110.98 -84.9 111.64 -84.26 112.33 C-83.39 113.24 -83.39 113.24 -82.51 114.17 C-80.98 116.02 -79.98 117.81 -79 120 C-91.39 132.01 -105.16 135.09 -122 135 C-139.24 133.92 -153.97 128.54 -166.67 116.68 C-174.98 107.11 -178.46 95.02 -178.2 82.52 C-177.8 77.51 -176.74 72.61 -175.37 67.77 C-175.25 67.19 -175.13 66.6 -175 66 C-175.33 65.67 -175.66 65.34 -176 65 C-183.17 65.23 -189.07 66.82 -195 71 C-198.72 75.47 -200.11 80.4 -200.21 86.11 C-200.23 87.15 -200.25 88.2 -200.27 89.27 C-200.28 90.39 -200.3 91.51 -200.32 92.67 C-200.35 94.39 -200.35 94.39 -200.38 96.15 C-200.44 99.83 -200.5 103.51 -200.56 107.19 C-200.61 109.68 -200.65 112.17 -200.69 114.66 C-200.8 120.77 -200.9 126.89 -201 133 C-205.82 133.02 -210.65 133.04 -215.47 133.05 C-217.11 133.06 -218.76 133.07 -220.4 133.08 C-222.75 133.09 -225.11 133.09 -227.46 133.1 C-228.2 133.1 -228.94 133.11 -229.7 133.11 C-231.47 133.11 -233.23 133.06 -235 133 C-236.81 131.19 -236.38 128.39 -236.56 125.94 C-236.69 124.28 -236.69 124.28 -236.82 122.59 C-236.88 121.74 -236.94 120.88 -237 120 C-237.44 120.36 -237.88 120.73 -238.33 121.1 C-252.06 131.99 -266.45 135.59 -283.75 135.5 C-284.41 135.5 -285.07 135.5 -285.75 135.49 C-305.69 135.36 -322.38 129.08 -336.89 115.14 C-337.58 114.44 -338.28 113.73 -339 113 C-339.58 112.43 -340.17 111.85 -340.77 111.26 C-350.51 100.93 -354.11 84.86 -354.5 71 C-353.96 53.33 -347.78 36.33 -335.06 23.75 C-318.57 8.46 -297.57 4.06 -275.67 4.82 C-269.18 5.26 -263.15 6.96 -257 9 C-255.92 9.35 -254.84 9.7 -253.73 10.06 C-244.71 13.39 -235.33 19.08 -231 28 C-231.75 30.19 -231.75 30.19 -233 32 C-233.5 32.99 -233.5 32.99 -234 34 C-219.15 34.5 -219.15 34.5 -204 35 C-202.12 38.77 -201.78 40.03 -202 44 C-199.78 44.21 -199.78 44.21 -197.75 42.17 C-194.89 39.91 -192.31 38.66 -188.94 37.31 C-187.92 36.9 -186.89 36.48 -185.84 36.05 C-181.99 34.63 -178.86 33.87 -174.75 33.94 C-172.89 33.97 -172.89 33.97 -171 34 C-169.35 37.3 -169.62 40.99 -169.44 44.62 C-169.39 45.43 -169.35 46.23 -169.31 47.05 C-169.2 49.04 -169.1 51.02 -169 53 C-168.34 53 -167.68 53 -167 53 C-165.72 51.68 -164.47 50.32 -163.25 48.94 C-152.75 38.22 -138.3 33.78 -123.62 33.56 C-115.53 33.61 -108.52 34.87 -101 38 C-100.1 38.36 -99.2 38.72 -98.27 39.1 C-87.81 43.77 -81.35 52.06 -76 62 C-76 62.66 -76 63.32 -76 64 C-75.01 64.33 -74.02 64.66 -73 65 C-72.68 64.25 -72.37 63.5 -72.04 62.73 C-65.3 47.94 -55.45 41.06 -40.86 35.13 C-31.38 32.14 -18.99 32.79 -10 37 C-8.61 37.84 -7.22 38.7 -5.85 39.57 C-4.77 40.25 -4.77 40.25 -3.66 40.95 C-2.84 41.47 -2.84 41.47 -2 42 C-1.97 40.8 -1.95 39.6 -1.92 38.36 C-1.83 33.91 -1.73 29.47 -1.63 25.02 C-1.58 23.09 -1.54 21.17 -1.5 19.24 C-1.45 16.48 -1.38 13.71 -1.32 10.95 C-1.3 10.08 -1.28 9.22 -1.27 8.33 C-1.11 2.23 -1.11 2.23 0 0 Z " fill="#1ABCE2" transform="matrix(1, 0, 0, 1, 1102, 65.99999999999994)"/>
  <path d="M0 0 C22.6 -1.66 44.99 7.58 62.06 22.12 C78.17 37.21 91.14 59.32 92.12 81.76 C92.8 107.39 92.8 107.39 89 119 C88.61 120.2 88.22 121.4 87.82 122.64 C80.73 142.81 66.85 158.65 49 170 C48.34 170.48 47.68 170.96 47 171.45 C35.46 179.61 19.94 182.52 6.17 183.54 C4.43 183.67 4.43 183.67 2.66 183.81 C1.78 183.87 0.9 183.93 0 184 C0.01 184.96 0.01 185.93 0.02 186.92 C0.03 190.49 0.05 194.05 0.05 197.62 C0.06 199.16 0.07 200.71 0.08 202.25 C0.09 204.47 0.09 206.69 0.1 208.9 C0.11 209.94 0.11 209.94 0.11 211.01 C0.11 212.67 0.06 214.34 0 216 C-1 217 -1 217 -3.49 217.05 C-29.66 215.66 -53.76 204.5 -71.83 185.48 C-82.09 173.75 -88.43 160.1 -92 145 C-92.23 144.11 -92.45 143.22 -92.68 142.31 C-97.86 118.91 -91.32 94.03 -79.04 73.91 C-64 52.47 -42.46 38.8 -16.94 33.56 C-13.33 33.07 -9.83 32.94 -6.19 32.96 C-5.22 32.97 -4.24 32.97 -3.23 32.98 C-2.13 32.99 -2.13 32.99 -1 33 C-1.01 32.07 -1.01 31.14 -1.02 30.19 C-1.03 26.75 -1.05 23.31 -1.05 19.87 C-1.06 18.38 -1.07 16.89 -1.08 15.4 C-1.09 13.26 -1.09 11.12 -1.1 8.98 C-1.1 7.69 -1.11 6.4 -1.11 5.07 C-1 2 -1 2 0 0 Z " fill="#102F38" transform="matrix(1, 0, 0, 1, 132, 23.999999999999943)"/>
  <path d="M0 0 C10.28 12.7 11.16 26.54 11.1 42.25 C11.1 44.13 11.1 44.13 11.09 46.05 C11.09 49.36 11.08 52.66 11.07 55.97 C11.06 59.36 11.05 62.74 11.05 66.13 C11.04 72.75 11.02 79.38 11 86 C7.45 86.97 4.43 87.05 0.74 86.91 C-0.46 86.87 -1.66 86.83 -2.9 86.78 C-4.78 86.7 -4.78 86.7 -6.69 86.62 C-8.58 86.56 -8.58 86.56 -10.51 86.49 C-19.87 86.13 -19.87 86.13 -21 85 C-21.07 83.48 -21.08 81.96 -21.06 80.44 C-21.05 79.61 -21.04 78.78 -21.04 77.93 C-21.02 76.98 -21.02 76.98 -21 76 C-21.66 76 -22.32 76 -23 76 C-23.16 76.72 -23.33 77.44 -23.5 78.19 C-26.09 83.04 -30.75 85.06 -35.69 87.12 C-45.39 89.69 -58.96 89.56 -68 85 C-75.57 80.53 -81.53 75.95 -84.46 67.36 C-86.39 58.93 -85.59 50.4 -81 43 C-74.23 34.73 -65.26 31.76 -55 30 C-52.58 29.85 -50.15 29.75 -47.73 29.68 C-47.05 29.66 -46.37 29.64 -45.67 29.62 C-43.51 29.56 -41.35 29.5 -39.19 29.44 C-37.72 29.39 -36.25 29.35 -34.78 29.31 C-31.18 29.2 -27.59 29.1 -24 29 C-25.55 23.97 -27.23 20.77 -31 17 C-39.56 12.81 -49.34 15.23 -58 18 C-75.23 24.77 -85.47 36.23 -96.3 50.74 C-110.17 69.31 -125.5 83.54 -149.07 87.6 C-170.2 90.48 -188.22 86.69 -205.48 74.21 C-214.84 66.53 -219.02 55.76 -221 44 C-222.29 29.91 -217.63 15.68 -208.81 4.69 C-198.4 -6.25 -182.55 -11.91 -167.62 -12.31 C-154.21 -12.18 -140.11 -8.1 -130.25 1.19 C-124.3 7.52 -118.06 16.1 -117 25 C-118.15 29.25 -120.41 31.87 -123.38 35.06 C-124.53 36.32 -124.53 36.32 -125.71 37.6 C-126.47 38.39 -127.22 39.18 -128 40 C-128.61 40.7 -129.22 41.4 -129.85 42.12 C-135.94 47.45 -142.25 47.41 -149.96 47.29 C-151 47.29 -152.03 47.28 -153.1 47.28 C-156.38 47.26 -159.66 47.23 -162.94 47.19 C-165.17 47.17 -167.4 47.16 -169.63 47.15 C-175.09 47.11 -180.54 47.06 -186 47 C-183.56 53.45 -179.76 56.27 -174 59.88 C-164.06 63.6 -152.34 61.23 -143 57 C-128.29 49.77 -117.44 36.85 -107.62 24.06 C-91.35 3 -70.47 -9.32 -43.88 -12.81 C-28.57 -13.81 -11.46 -11.04 0 0 Z " fill="#102F38" transform="matrix(1, 0, 0, 1, 654, 112.99999999999994)"/>
  <path d="M0 0 C16.07 0.29 28.59 5.42 40.4 16.25 C49.89 26.29 56.42 39.08 57 53 C57.06 54.06 57.06 54.06 57.12 55.14 C57.56 69.67 53.12 82.55 43.5 93.5 C42.02 95.02 40.52 96.52 39 98 C38.43 98.57 37.85 99.14 37.26 99.73 C29.13 107.28 18.98 111.7 8 113 C5.37 112.63 5.37 112.63 3 112 C1.68 111.67 0.36 111.34 -1 111 C-1 122.55 -1 134.1 -1 146 C-18.78 144.52 -33.03 138.3 -45.29 125.13 C-53.43 114.96 -57.94 100.82 -57.31 87.76 C-55.37 70.55 -48.97 56.34 -35.66 45.01 C-25.88 37.62 -13.31 32.92 -1 33 C-1.01 32.11 -1.01 31.21 -1.02 30.29 C-1.03 26.98 -1.05 23.66 -1.05 20.35 C-1.06 18.91 -1.07 17.48 -1.08 16.04 C-1.09 13.98 -1.09 11.92 -1.1 9.86 C-1.1 8.61 -1.11 7.37 -1.11 6.09 C-1 3 -1 3 0 0 Z " fill="#F3FCFC" transform="matrix(1, 0, 0, 1, 132, 58.99999999999994)"/>
  <path d="M0 0 C4.54 -0.02 9.08 -0.04 13.62 -0.05 C15.16 -0.06 16.71 -0.07 18.25 -0.08 C20.47 -0.09 22.69 -0.09 24.9 -0.1 C25.6 -0.1 26.29 -0.11 27.01 -0.11 C28.67 -0.11 30.34 -0.06 32 0 C33.68 1.68 33.23 3.82 33.32 6.13 C33.36 7.16 33.4 8.2 33.44 9.26 C33.48 10.35 33.52 11.44 33.56 12.56 C33.61 13.65 33.65 14.75 33.69 15.87 C33.8 18.58 33.9 21.29 34 24 C34.6 24.02 35.19 24.04 35.8 24.06 C38.49 24.16 41.18 24.26 43.88 24.38 C44.81 24.41 45.75 24.44 46.71 24.47 C47.61 24.51 48.51 24.55 49.43 24.59 C50.67 24.63 50.67 24.63 51.94 24.68 C54 25 54 25 56 27 C56.23 29.43 56.23 29.43 56.2 32.45 C56.19 33.52 56.18 34.6 56.18 35.71 C56.15 37.4 56.15 37.4 56.12 39.12 C56.12 40.26 56.11 41.4 56.1 42.57 C56.07 45.38 56.04 48.19 56 51 C55.05 51.04 55.05 51.04 54.09 51.08 C51.25 51.19 48.4 51.31 45.56 51.44 C44.57 51.48 43.58 51.52 42.55 51.56 C41.14 51.62 41.14 51.62 39.69 51.68 C38.38 51.74 38.38 51.74 37.04 51.79 C35.01 51.78 35.01 51.78 34 53 C33.9 55.39 33.86 57.75 33.87 60.14 C33.87 61.22 33.87 61.22 33.86 62.32 C33.86 63.85 33.87 65.37 33.87 66.9 C33.87 69.23 33.87 71.55 33.86 73.88 C33.86 75.36 33.87 76.85 33.87 78.33 C33.86 79.37 33.86 79.37 33.86 80.43 C33.88 84.06 33.98 87.5 35 91 C39.32 93.92 44.98 93.35 50 93 C51.34 92.7 52.68 92.38 54 92 C56.25 96.86 58.37 101.76 60.31 106.75 C60.83 108.07 60.83 108.07 61.36 109.42 C62.1 112.4 62.05 114.12 61 117 C52.9 122.61 39.68 121.79 30.43 120.5 C23.16 119.11 17.14 117.17 11 113 C9.64 112.13 9.64 112.13 8.25 111.25 C0.16 103.16 -1.26 92.54 -1.41 81.59 C-1.43 80.74 -1.45 79.88 -1.47 79.01 C-1.53 76.32 -1.58 73.63 -1.62 70.94 C-1.66 69.1 -1.7 67.26 -1.74 65.42 C-1.84 60.95 -1.92 56.47 -2 52 C-5.3 52 -8.6 52 -12 52 C-12 74.11 -12 96.22 -12 119 C-17.59 119.02 -23.18 119.04 -28.94 119.06 C-30.7 119.07 -32.47 119.08 -34.29 119.09 C-35.68 119.09 -37.07 119.1 -38.46 119.1 C-39.19 119.1 -39.92 119.11 -40.67 119.11 C-42.45 119.11 -44.23 119.06 -46 119 C-47.84 117.16 -47.13 114.57 -47.15 112.12 C-47.15 111.28 -47.15 110.43 -47.15 109.56 C-47.15 108.68 -47.15 107.8 -47.16 106.88 C-47.16 103.95 -47.17 101.01 -47.17 98.07 C-47.17 96.03 -47.17 94 -47.18 91.96 C-47.18 87.69 -47.19 83.42 -47.19 79.16 C-47.19 73.67 -47.2 68.19 -47.22 62.71 C-47.23 58.5 -47.23 54.3 -47.23 50.1 C-47.23 48.08 -47.23 46.06 -47.24 44.03 C-47.25 41.21 -47.25 38.39 -47.24 35.56 C-47.25 34.72 -47.25 33.88 -47.26 33.01 C-47.23 27.23 -47.23 27.23 -45 25 C-43.09 24.76 -43.09 24.76 -40.73 24.77 C-39.85 24.77 -38.97 24.77 -38.06 24.77 C-36.64 24.79 -36.64 24.79 -35.18 24.8 C-33.72 24.81 -33.72 24.81 -32.23 24.81 C-29.11 24.82 -25.99 24.85 -22.88 24.88 C-20.76 24.89 -18.65 24.89 -16.54 24.9 C-11.36 24.92 -6.18 24.96 -1 25 C-1.01 24.31 -1.01 23.63 -1.02 22.92 C-1.04 19.82 -1.05 16.72 -1.06 13.62 C-1.07 12.54 -1.08 11.46 -1.09 10.35 C-1.09 9.32 -1.09 8.29 -1.1 7.23 C-1.1 6.27 -1.11 5.32 -1.11 4.34 C-1 2 -1 2 0 0 Z " fill="#1ABCE2" transform="matrix(1, 0, 0, 1, 1195, 79.99999999999994)"/>
  <path d="M0 0 C3.27 2.98 6.11 6.3 8.89 9.73 C4.99 18.42 -4.58 25.19 -12.11 30.73 C-15.52 28.51 -18.74 26.22 -21.92 23.66 C-28.75 18.5 -37.22 16.26 -45.75 17.07 C-55 18.85 -61.94 21.24 -68.48 28.29 C-69.02 29.09 -69.55 29.9 -70.11 30.73 C-70.62 31.43 -71.14 32.13 -71.67 32.85 C-76.77 43.06 -77.73 54.05 -74.54 64.98 C-71.52 73.11 -65.79 79.63 -58.11 83.73 C-48.74 87.71 -37.73 88.34 -28.11 84.73 C-23.64 82.31 -19.72 79.54 -16.29 75.79 C-15.57 75.11 -14.85 74.43 -14.11 73.73 C-10.18 73.96 -8.06 76.31 -5.29 78.91 C-1.79 82.18 1.74 85.3 5.52 88.24 C7.33 90.19 8.03 92.24 8.89 94.73 C-5.14 109.33 -20.24 116.48 -40.76 117.13 C-61.82 117.38 -80.09 110.83 -96.11 96.73 C-108.79 83.66 -113.11 66.43 -113.11 48.73 C-112.79 44.93 -112.08 41.4 -111.11 37.73 C-110.85 36.69 -110.59 35.65 -110.32 34.59 C-105.9 18.5 -96.48 5.67 -82.36 -3.21 C-57.9 -16.3 -22.65 -17.99 0 0 Z " fill="#102F38" transform="matrix(1, 0, 0, 1, 372.10546875, 85.27343749999994)"/>
  <path d="M0 0 C2.41 1.99 4.66 4.04 6.86 6.26 C9.35 8.29 10.79 8.92 14 9 C16.12 7.79 16.12 7.79 17.94 5.88 C18.62 5.23 19.3 4.59 20.01 3.93 C20.67 3.29 21.32 2.66 22 2 C23.95 0.19 25.86 -1.4 28 -3 C28.99 -2.67 29.98 -2.34 31 -2 C30.67 -1.67 30.34 -1.34 30 -1 C29.88 1.12 29.82 3.24 29.79 5.36 C29.78 6.02 29.77 6.68 29.76 7.37 C29.73 9.57 29.71 11.77 29.68 13.97 C29.66 15.5 29.64 17.02 29.62 18.54 C29.57 22.56 29.52 26.57 29.47 30.59 C29.42 34.69 29.36 38.78 29.31 42.88 C29.2 50.92 29.1 58.96 29 67 C24.15 64.18 20.38 60.79 16.3 56.96 C14.08 54.82 14.08 54.82 11 54 C10.77 54.59 10.53 55.17 10.29 55.78 C7.11 61.26 -0.56 65.6 -6.54 67.57 C-16.64 69.35 -27.52 69.11 -36.33 63.52 C-44.96 57.26 -50.41 49.81 -52.54 39.36 C-54.02 28.48 -51.4 16.73 -44.76 7.86 C-34.31 -3.21 -13.67 -8.09 0 0 Z " fill="#F9FCFE" transform="matrix(1, 0, 0, 1, 837, 103.99999999999994)"/>
  <path d="M0 0 C2.13 -0 4.27 -0.02 6.4 -0.04 C7.75 -0.04 9.1 -0.04 10.45 -0.05 C11.69 -0.05 12.92 -0.05 14.19 -0.06 C17.14 0.19 17.14 0.19 19.14 2.19 C19.39 4.46 19.39 4.46 19.38 7.36 C19.38 8.46 19.39 9.55 19.39 10.68 C19.38 11.89 19.38 13.1 19.37 14.35 C19.37 15.61 19.37 16.88 19.37 18.19 C19.37 21.67 19.36 25.16 19.34 28.64 C19.33 32.28 19.33 35.92 19.33 39.55 C19.32 46.45 19.31 53.34 19.29 60.23 C19.26 68.07 19.25 75.92 19.24 83.76 C19.22 99.9 19.19 116.05 19.14 132.19 C14.46 132.21 9.78 132.23 5.1 132.24 C3.5 132.25 1.91 132.25 0.32 132.26 C-1.97 132.27 -4.26 132.28 -6.54 132.28 C-7.26 132.29 -7.98 132.29 -8.71 132.3 C-10.43 132.3 -12.14 132.25 -13.86 132.19 C-14.86 131.19 -14.86 131.19 -14.98 129.03 C-14.98 128.07 -14.98 127.12 -14.98 126.13 C-14.98 125.03 -14.98 123.94 -14.98 122.81 C-14.98 121.6 -14.98 120.39 -14.97 119.14 C-14.97 117.87 -14.97 116.6 -14.97 115.3 C-14.97 111.81 -14.97 108.32 -14.96 104.83 C-14.95 101.19 -14.95 97.55 -14.95 93.91 C-14.95 87.01 -14.94 80.11 -14.93 73.21 C-14.92 65.36 -14.91 57.51 -14.91 49.66 C-14.9 33.5 -14.88 17.34 -14.86 1.19 C-10.55 -0.97 -4.79 -0 0 0 Z " fill="#102F38" transform="matrix(1, 0, 0, 1, 405.8583984375, 66.81469726562494)"/>
  <path d="M0 0 C2 2 2 2 2.24 4.78 C2.24 5.94 2.23 7.09 2.23 8.29 C2.23 9.54 2.23 10.79 2.22 12.08 C2.21 13.39 2.2 14.71 2.19 16.06 C2.19 18.04 2.19 18.04 2.19 20.06 C2.14 29.86 2.14 29.86 1 31 C-1.37 31.16 -3.75 31.28 -6.12 31.38 C-13.42 31.78 -18.06 32.58 -23.81 37.31 C-28.83 43.48 -28.32 50.34 -28.38 57.93 C-28.4 59.07 -28.41 60.21 -28.43 61.39 C-28.48 65.03 -28.52 68.67 -28.56 72.31 C-28.61 75.97 -28.65 79.63 -28.71 83.29 C-28.74 85.56 -28.76 87.84 -28.79 90.11 C-28.8 91.13 -28.81 92.16 -28.83 93.21 C-28.84 94.11 -28.85 95.02 -28.86 95.95 C-29 98 -29 98 -30 99 C-32.35 99.11 -34.67 99.16 -37.03 99.17 C-38.08 99.17 -38.08 99.17 -39.16 99.18 C-40.65 99.18 -42.15 99.19 -43.64 99.19 C-45.92 99.19 -48.21 99.21 -50.5 99.22 C-51.95 99.23 -53.39 99.23 -54.84 99.23 C-55.53 99.24 -56.21 99.24 -56.92 99.25 C-61.77 99.23 -61.77 99.23 -64 97 C-64.19 94.06 -64.26 91.21 -64.24 88.27 C-64.24 87.36 -64.25 86.46 -64.25 85.53 C-64.25 82.53 -64.24 79.53 -64.23 76.53 C-64.23 74.45 -64.23 72.38 -64.23 70.3 C-64.23 65.94 -64.22 61.58 -64.21 57.23 C-64.19 51.63 -64.18 46.03 -64.19 40.44 C-64.19 36.15 -64.18 31.86 -64.17 27.56 C-64.17 25.5 -64.17 23.44 -64.17 21.37 C-64.16 18.49 -64.16 15.61 -64.15 12.73 C-64.15 11.87 -64.15 11.01 -64.15 10.13 C-64.11 4.23 -64.11 4.23 -63 2 C-58.6 1.98 -54.21 1.96 -49.81 1.95 C-48.31 1.94 -46.82 1.93 -45.32 1.92 C-43.17 1.91 -41.03 1.91 -38.88 1.9 C-36.94 1.89 -36.94 1.89 -34.96 1.89 C-32 2 -32 2 -31 3 C-30.63 5.33 -30.3 7.66 -30 10 C-27.78 10.21 -27.78 10.21 -25.78 8.17 C-22.77 5.82 -20.07 4.64 -16.5 3.31 C-15.4 2.9 -14.29 2.48 -13.16 2.05 C-8.76 0.59 -4.65 -0.38 0 0 Z " fill="#102F38" transform="matrix(1, 0, 0, 1, 737, 100.99999999999994)"/>
  <path d="M0 0 C-2.13 2.19 -4.35 4.16 -6.69 6.12 C-17.18 15.34 -25.14 25.75 -26.94 39.99 C-27.16 51.14 -22.19 59.78 -14.69 67.62 C-11.32 70.85 -7.67 73.66 -3.92 76.42 C-2 78 -2 78 0 81 C0.23 84.19 0.23 84.19 0.2 88.07 C0.19 88.76 0.19 89.44 0.19 90.15 C0.18 92.33 0.15 94.51 0.12 96.69 C0.11 98.17 0.11 99.65 0.1 101.13 C0.08 104.75 0.04 108.38 0 112 C-17.54 110.91 -32.22 104.1 -44.29 91.13 C-52.43 80.96 -56.94 66.82 -56.31 53.76 C-54.37 36.55 -47.97 22.34 -34.66 11.01 C-26.18 4.6 -10.96 -3.54 0 0 Z " fill="#F3FCFC" transform="matrix(1, 0, 0, 1, 131, 92.99999999999994)"/>
  <path d="M0 0 C6.28 0.82 9.03 4.33 13 9 C23.73 23.09 29.42 35.07 28 53 C25.94 63.1 16.81 70.9 9 77 C8.34 77.66 7.68 78.32 7 79 C4.88 78.62 4.88 78.62 3 78 C3 78.66 3 79.32 3 80 C-7.29 75.34 -17.29 66.03 -21.99 55.73 C-25.85 45.29 -25.15 37.39 -20.84 27.29 C-16.19 17.86 -7.57 6.79 2 2 C1.34 1.34 0.68 0.68 0 0 Z " fill="#1DBCE2" transform="matrix(1, 0, 0, 1, 128, 91.99999999999994)"/>
  <path d="M0 0 C5.06 3.38 9.01 8.36 10.77 14.18 C11.56 21.73 12.38 29.85 8.14 36.49 C6.45 38.51 6.45 38.51 4.77 40.18 C3.94 41.03 3.12 41.87 2.27 42.74 C-3.86 45.26 -11.17 45.48 -17.52 43.45 C-19.29 42.49 -19.29 42.49 -22.23 40.18 C-23.14 39.5 -24.05 38.82 -24.98 38.12 C-29.07 32.78 -30.65 26.25 -30.17 19.55 C-28.96 12.33 -26.11 5.72 -20.23 1.18 C-13.65 -2.25 -6.94 -3.29 0 0 Z " fill="#F3FCFC" transform="matrix(1, 0, 0, 1, 1090.23046875, 128.82031249999994)"/>
  <path d="M0 0 C4.84 4.17 8.02 9.87 8.5 16.25 C8.12 21.88 6.14 25.34 2.19 29.25 C-1.4 32.1 -4.57 33.03 -9.12 33.25 C-15.1 32.54 -20.77 29.46 -24.75 24.94 C-27.02 20.76 -27.32 16.6 -26.75 11.94 C-24.59 5.58 -19.96 1.88 -14.38 -1.5 C-9.41 -2.56 -4.7 -1.82 0 0 Z " fill="#1ABCE2" transform="matrix(1, 0, 0, 1, 1174.75, 64.06249999999994)"/>
  <path d="M0 0 C3.52 3.05 6.56 6.34 8.81 10.44 C8.81 11.76 8.81 13.08 8.81 14.44 C-3.73 14.44 -16.27 14.44 -29.19 14.44 C-28.23 8.72 -27.79 6.69 -24.19 2.44 C-16.44 -2.57 -8.51 -4.17 0 0 Z " fill="#F3FCFC" transform="matrix(1, 0, 0, 1, 988.1875, 126.56249999999994)"/>
  <path d="M0 0 C3.95 2.98 6.08 6.62 8.18 10.99 C8.18 11.98 8.18 12.97 8.18 13.99 C-4.03 13.99 -16.24 13.99 -28.82 13.99 C-29.82 9.99 -29.82 9.99 -28.63 6.99 C-25.74 2.21 -23.1 -0.36 -17.69 -1.89 C-11.38 -3.42 -5.76 -3.21 0 0 Z " fill="#F9FCFE" transform="matrix(1, 0, 0, 1, 497.81640625, 128.01171874999994)"/>
  <path d="M0 0 C0.61 4.02 0.92 6.51 -1.24 10.01 C-4.39 13.75 -7.08 16.77 -12.14 17.37 C-23.28 17.57 -23.28 17.57 -26.88 15 C-29.82 10.84 -29.8 9.02 -29 4 C-26.79 1.03 -25.51 0.17 -22 -1 C-18.84 -1.37 -15.67 -1.51 -12.5 -1.69 C-11.63 -1.75 -10.76 -1.81 -9.87 -1.87 C-9.04 -1.92 -8.2 -1.96 -7.34 -2.01 C-6.58 -2.06 -5.82 -2.1 -5.04 -2.15 C-3 -2 -3 -2 0 0 Z " fill="#F9FCFE" transform="matrix(1, 0, 0, 1, 631, 161.99999999999994)"/>
  <path d="M0 0 C2.12 0.38 2.12 0.38 4 1 C3.67 1.33 3.34 1.66 3 2 C2.88 4.12 2.82 6.24 2.79 8.36 C2.78 9.35 2.78 9.35 2.76 10.37 C2.73 12.57 2.71 14.77 2.68 16.97 C2.66 18.5 2.64 20.02 2.62 21.54 C2.57 25.56 2.52 29.57 2.47 33.59 C2.42 37.69 2.36 41.78 2.31 45.88 C2.2 53.92 2.1 61.96 2 70 C-1.61 67.89 -4.7 65.68 -7.81 62.88 C-9 61.82 -9 61.82 -10.21 60.74 C-11.09 59.88 -11.09 59.88 -12 59 C-12 58.67 -12 58.34 -12 58 C-9.98 57.84 -7.96 57.67 -5.95 57.51 C-3.6 57.13 -3.6 57.13 -2 54 C-0.77 46.56 -0.85 39.09 -0.87 31.57 C-0.87 29.5 -0.87 27.44 -0.86 25.37 C-0.86 18.5 -1.1 11.81 -2 5 C-2 2 -2 2 0 0 Z " fill="#F3FCFC" transform="matrix(1, 0, 0, 1, 864, 100.99999999999994)"/>
  <path d="M0 0 C0.66 0 1.32 0 2 0 C2 7.59 2 15.18 2 23 C5.47 20.53 5.47 20.53 9 18 C7.93 20.59 7.34 21.8 4.88 23.25 C2.81 24.8 2.81 24.8 2.74 26.96 C2.75 28.98 2.87 30.99 3 33 C4.49 32.5 4.49 32.5 6 32 C5 35 5 35 3 36 C2.53 38.82 2.53 38.82 2.38 42.06 C2.3 43.17 2.23 44.27 2.15 45.41 C2.1 46.26 2.05 47.12 2 48 C0.68 47.34 -0.64 46.68 -2 46 C-1.93 45.44 -1.86 44.89 -1.79 44.31 C-1.35 38.15 -2.73 35.13 -6.69 30.43 C-7.12 29.96 -7.55 29.49 -8 29 C-5.33 30.33 -2.67 31.67 0 33 C0 30.69 0 28.38 0 26 C-0.66 26 -1.32 26 -2 26 C-3.69 24.32 -3.69 24.32 -5.56 22.12 C-6.18 21.41 -6.8 20.69 -7.44 19.95 C-9 18 -9 18 -10 16 C-7.05 17.37 -4.56 18.99 -2 21 C-1.47 14.64 -1.47 14.64 -4 8.94 C-4.66 8.3 -5.32 7.66 -6 7 C-5.67 6.34 -5.34 5.68 -5 5 C-4.01 5.66 -3.02 6.32 -2 7 C-1.34 4.69 -0.68 2.38 0 0 Z " fill="#E1F5F7" transform="matrix(1, 0, 0, 1, 131, 120.99999999999994)"/>
  <path d="M0 0 C2.67 1.33 5.33 2.67 8 4 C8.33 2.68 8.66 1.36 9 0 C9.66 1.32 10.32 2.64 11 4 C11.99 3.67 12.98 3.34 14 3 C13 6 13 6 11 7 C10.53 9.82 10.53 9.82 10.38 13.06 C10.3 14.17 10.23 15.27 10.15 16.41 C10.1 17.26 10.05 18.12 10 19 C8.68 18.34 7.36 17.68 6 17 C6.07 16.44 6.14 15.89 6.21 15.31 C6.65 9.15 5.27 6.13 1.31 1.43 C0.88 0.96 0.45 0.49 0 0 Z " fill="#E5F6F8" transform="matrix(1, 0, 0, 1, 123, 149.99999999999994)"/>
  <path d="M0 0 C0.05 0.63 0.1 1.26 0.15 1.91 C1.19 13.8 3.9 23 12 32 C5.86 29.25 2.37 24.38 -0.31 18.31 C-2.41 12.66 -2.79 6.99 -3 1 C-1 0 -1 0 0 0 Z " fill="#F3FCFC" transform="matrix(1, 0, 0, 1, 787, 132.99999999999994)"/>
  <path d="M0 0 C2.51 1.26 2.87 2.5 4 5 C8.58 4.92 13.17 4.81 17.75 4.69 C19.05 4.66 20.35 4.64 21.7 4.62 C23.57 4.57 23.57 4.57 25.48 4.51 C26.64 4.49 27.79 4.46 28.98 4.43 C32.22 3.97 33.62 3.19 36 1 C36.5 3.47 36.5 3.47 37 6 C24.79 6 12.58 6 0 6 C-1 2 -1 2 0 0 Z " fill="#F3FCFC" transform="matrix(1, 0, 0, 1, 469, 135.99999999999994)"/>
  <path d="M0 0 C-1.2 0.8 -2.41 1.59 -3.62 2.38 C-4.63 3.04 -4.63 3.04 -5.66 3.71 C-11.27 6.8 -16.13 7.27 -22.38 7.12 C-23.48 7.11 -23.48 7.11 -24.61 7.1 C-26.4 7.07 -28.2 7.04 -30 7 C-29.34 6.34 -28.68 5.68 -28 5 C-26.23 5.01 -24.45 5.11 -22.69 5.25 C-16.04 5.42 -11.5 3.31 -5.71 0.21 C-3 -1 -3 -1 0 0 Z " fill="#F3FCFC" transform="matrix(1, 0, 0, 1, 842, 164.99999999999994)"/>
  <path d="M0 0 C2.31 0.66 4.62 1.32 7 2 C7 2.99 7 3.98 7 5 C4.69 5.33 2.38 5.66 0 6 C0 4.02 0 2.04 0 0 Z " fill="#3D5F68" transform="matrix(1, 0, 0, 1, 130, 167.99999999999994)"/>
  <path d="M0 0 C0.66 0 1.32 0 2 0 C2 2.97 2 5.94 2 9 C1.01 9 0.02 9 -1 9 C-1.1 2.85 -1.1 2.85 -1 1 C-0.67 0.67 -0.34 0.34 0 0 Z " fill="#9DDBE6" transform="matrix(1, 0, 0, 1, 131, 120.99999999999994)"/>
</svg>