<?xml version="1.0" encoding="utf-8"?>
<svg viewBox="-578.1479 -1630.3202 2564.4617 1866.6518" xmlns="http://www.w3.org/2000/svg">
  <ellipse style="fill: none; stroke: rgb(154, 154, 154); transform-origin: 397.115px -117.399px;" cx="397.115" cy="-117.399" rx="860.379" ry="679.869" transform="matrix(0.970296025276, -0.241922006011, 0.241922006011, 0.970296025276, 589.901211332659, -645.102436439178)"/>
  <ellipse style="fill: none; stroke: rgb(154, 154, 154); transform-origin: 322.253px -120.398px;" cx="322.253" cy="-120.398" rx="860.379" ry="679.869" transform="matrix(0.970296025276, -0.241922006011, 0.241922006011, 0.970296025276, 516.016761248409, -615.239130028729)"/>
  <ellipse style="fill: none; stroke: rgb(154, 154, 154); transform-origin: 373.105px -120.067px;" cx="373.105" cy="-120.067" rx="860.379" ry="679.869" transform="matrix(0.970296025276, -0.241922006011, 0.241922006011, 0.970296025276, 564.839620072701, -639.293623177964)"/>
  <ellipse style="fill: none; stroke: rgb(154, 154, 154); transform-origin: 266.25px -119.075px;" cx="266.25" cy="-119.075" rx="860.379" ry="679.869" transform="matrix(0.970296025276, -0.241922006011, 0.241922006011, 0.970296025276, 463.598656203812, -585.020179271692)"/>
  <ellipse style="fill: none; stroke: rgb(154, 154, 154); transform-origin: 294.996px -119.406px;" cx="294.996" cy="-119.406" rx="860.379" ry="679.869" transform="matrix(0.970296025276, -0.241922006011, 0.241922006011, 0.970296025276, 490.783059107244, -599.762421105439)"/>
  <ellipse style="fill: none; stroke: rgb(154, 154, 154); transform-origin: 349.174px -118.696px;" cx="349.174" cy="-118.696" rx="860.379" ry="679.869" transform="matrix(0.970296025276, -0.241922006011, 0.241922006011, 0.970296025276, 543.085094455215, -624.600760453501)"/>
  <ellipse style="fill: none; stroke: rgb(154, 154, 154); transform-origin: 397.115px -117.399px;" cx="397.115" cy="-117.399" rx="860.379" ry="679.869" transform="matrix(0.970296025276, -0.241922006011, 0.241922006011, 0.970296025276, 281.202543744783, -572.494190816192)"/>
  <ellipse style="fill: none; stroke: rgb(154, 154, 154); transform-origin: 322.253px -120.398px;" cx="322.253" cy="-120.398" rx="860.379" ry="679.869" transform="matrix(0.970296025276, -0.241922006011, 0.241922006011, 0.970296025276, 207.31795357922, -542.631166220197)"/>
  <ellipse style="fill: none; stroke: rgb(154, 154, 154); transform-origin: 373.105px -120.067px;" cx="373.105" cy="-120.067" rx="860.379" ry="679.869" transform="matrix(0.970296025276, -0.241922006011, 0.241922006011, 0.970296025276, 256.140929350122, -566.685439496628)"/>
  <ellipse style="fill: none; stroke: rgb(154, 154, 154); transform-origin: 266.25px -119.075px;" cx="266.25" cy="-119.075" rx="860.379" ry="679.869" transform="matrix(0.970296025276, -0.241922006011, 0.241922006011, 0.970296025276, 154.899751858185, -512.412300766137)"/>
  <ellipse style="fill: none; stroke: rgb(154, 154, 154); transform-origin: 294.996px -119.406px;" cx="294.996" cy="-119.406" rx="860.379" ry="679.869" transform="matrix(0.970296025276, -0.241922006011, 0.241922006011, 0.970296025276, 182.084121491827, -527.154366650666)"/>
  <ellipse style="fill: none; stroke: rgb(154, 154, 154); transform-origin: 349.174px -118.696px;" cx="349.174" cy="-118.696" rx="860.379" ry="679.869" transform="matrix(0.970296025276, -0.241922006011, 0.241922006011, 0.970296025276, 234.386234533279, -551.992727320445)"/>
</svg>